HIERARCHY
ROOT Hips
{
	OFFSET 0.000000 0.000000 0.000000
	CHANNELS 6 Xposition Yposition Zposition Zrotation Yrotation Xrotation 
	JOINT LHipJoint
	{
		OFFSET 0.000000 0.000000 0.000000
		CHANNELS 3 Zrotation Yrotation Xrotation
		JOINT LeftUpLeg
		{
			OFFSET 1.363060 -1.794630 0.839290
			CHANNELS 3 Zrotation Yrotation Xrotation
			JOINT LeftLeg
			{
				OFFSET 2.448110 -6.726130 0.000000
				CHANNELS 3 Zrotation Yrotation Xrotation
				JOINT LeftFoot
				{
					OFFSET 2.562200 -7.039590 0.000000
					CHANNELS 3 Zrotation Yrotation Xrotation
					JOINT LeftToeBase
					{
						OFFSET 0.157640 -0.433110 2.322550
						CHANNELS 3 Zrotation Yrotation Xrotation
						End Site
						{
							OFFSET 0.000000 0.000000 0.000000
						}
					}
				}
			}
		}
	}
	JOINT RHipJoint
	{
		OFFSET 0.000000 0.000000 0.000000
		CHANNELS 3 Zrotation Yrotation Xrotation
		JOINT RightUpLeg
		{
			OFFSET -1.305520 -1.794630 0.839290
			CHANNELS 3 Zrotation Yrotation Xrotation
			JOINT RightLeg
			{
				OFFSET -2.542530 -6.985550 0.000000
				CHANNELS 3 Zrotation Yrotation Xrotation
				JOINT RightFoot
				{
					OFFSET -2.568260 -7.056230 0.000000
					CHANNELS 3 Zrotation Yrotation Xrotation
					JOINT RightToeBase
					{
						OFFSET -0.164730 -0.452590 2.363150
						CHANNELS 3 Zrotation Yrotation Xrotation
						End Site
						{
							OFFSET 0.000000 0.000000 0.000000
						}
					}
				}
			}
		}
	}
	JOINT LowerBack
	{
		OFFSET 0.000000 0.000000 0.000000
		CHANNELS 3 Zrotation Yrotation Xrotation
		JOINT Spine
		{
			OFFSET 0.028270 2.035590 -0.193380
			CHANNELS 3 Zrotation Yrotation Xrotation
			JOINT Spine1
			{
				OFFSET 0.056720 2.048850 -0.042750
				CHANNELS 3 Zrotation Yrotation Xrotation
				JOINT Neck
				{
					OFFSET 0.000000 0.000000 0.000000
					CHANNELS 3 Zrotation Yrotation Xrotation
					JOINT Neck1
					{
						OFFSET -0.054170 1.746240 0.172020
						CHANNELS 3 Zrotation Yrotation Xrotation
						JOINT Head
						{
							OFFSET 0.104070 1.761360 -0.123970
							CHANNELS 3 Zrotation Yrotation Xrotation
							End Site
							{
								OFFSET 0.000000 0.000000 0.000000
							}
						}
					}
				}
				JOINT LeftShoulder
				{
					OFFSET 0.000000 0.000000 0.000000
					CHANNELS 3 Zrotation Yrotation Xrotation
					JOINT LeftArm
					{
						OFFSET 3.362410 1.200890 -0.311210
						CHANNELS 3 Zrotation Yrotation Xrotation
						JOINT LeftForeArm
						{
							OFFSET 4.983000 -0.000000 -0.000000
							CHANNELS 3 Zrotation Yrotation Xrotation
							JOINT LeftHand
							{
								OFFSET 3.483560 -0.000000 -0.000000
								CHANNELS 3 Zrotation Yrotation Xrotation
								JOINT LeftFingerBase
								{
									OFFSET 0.000000 0.000000 0.000000
									CHANNELS 3 Zrotation Yrotation Xrotation
									JOINT LeftHandIndex1
									{
										OFFSET 0.715260 -0.000000 -0.000000
										CHANNELS 3 Zrotation Yrotation Xrotation
										End Site
										{
											OFFSET 0.000000 0.000000 0.000000
										}
									}
								}
								JOINT LThumb
								{
									OFFSET 0.000000 0.000000 0.000000
									CHANNELS 3 Zrotation Yrotation Xrotation
									End Site
									{
										OFFSET 0.000000 0.000000 0.000000
									}
								}
							}
						}
					}
				}
				JOINT RightShoulder
				{
					OFFSET 0.000000 0.000000 0.000000
					CHANNELS 3 Zrotation Yrotation Xrotation
					JOINT RightArm
					{
						OFFSET -3.136600 1.374050 -0.404650
						CHANNELS 3 Zrotation Yrotation Xrotation
						JOINT RightForeArm
						{
							OFFSET -5.241900 -0.000000 -0.000000
							CHANNELS 3 Zrotation Yrotation Xrotation
							JOINT RightHand
							{
								OFFSET -3.444170 -0.000000 -0.000000
								CHANNELS 3 Zrotation Yrotation Xrotation
								JOINT RightFingerBase
								{
									OFFSET 0.000000 0.000000 0.000000
									CHANNELS 3 Zrotation Yrotation Xrotation
									JOINT RightHandIndex1
									{
										OFFSET -0.622530 -0.000000 -0.000000
										CHANNELS 3 Zrotation Yrotation Xrotation
										End Site
										{
											OFFSET 0.000000 0.000000 0.000000
										}
									}
								}
								JOINT RThumb
								{
									OFFSET 0.000000 0.000000 0.000000
									CHANNELS 3 Zrotation Yrotation Xrotation
									End Site
									{
										OFFSET 0.000000 0.000000 0.000000
									}
								}
							}
						}
					}
				}
			}
		}
	}
}
MOTION
Frames: 9
Frame Time: 0.008333
-1.376800 17.069630 -0.885393 -11.116867 86.228666 -15.359821 -10.485869 2.657451 0.589355 -8.982942 7.543642 -0.559730 -1.925024 0.395716 17.058144 1.678195 8.450859 -14.509086 -1.308800 -0.000000 -21.671600 9.796278 -0.400207 -0.721219 8.795192 -11.235155 -24.931209 1.494972 -1.751452 29.623526 -1.503733 -7.308786 -4.260684 -0.764000 -0.000000 -33.136301 -1.082077 -2.869811 -1.375542 -0.948942 -2.894707 -2.443535 -6.398736 -2.831611 2.613680 9.806980 -16.576366 -8.551456 -3.080338 -0.229173 -0.238374 0.000000 0.000000 0.000000 2.775779 13.723681 0.785116 -47.790742 -4.265674 0.706828 -3.545991 -27.769087 -0.005282 4.143504 1.494294 0.055964 -0.175459 0.033626 0.000000 0.000000 0.000000 0.000000 0.000000 0.000000 0.000000 17.384963 -14.120156 -0.826789 66.164521 -5.325415 -13.211067 3.711227 22.261087 0.010160 0.897369 4.463672 0.031713 0.106183 -0.056071 -0.000000 0.000000 0.000000 0.000000 0.000000 0.000000 0.000000 
-1.230104 17.061614 -0.874233 -10.962674 86.533809 -15.124949 -10.459488 2.685396 0.552771 -8.998992 7.464620 0.413670 -1.939674 0.349303 16.284457 1.671896 8.334555 -14.600955 -1.312600 -0.000000 -21.936500 9.718464 -0.316497 -0.625677 9.065880 -11.281963 -25.223905 1.655091 -1.506868 26.546272 -1.489167 -7.346191 -3.442764 -0.925600 0.000000 -34.224500 -1.002521 -2.986967 -1.393888 -0.937356 -3.019885 -2.431439 -6.445565 -2.951472 2.643354 9.923624 -16.743975 -8.587028 -3.100960 -0.230262 -0.246849 0.000000 0.000000 0.000000 3.151007 13.370866 0.853328 -46.451599 -4.883490 0.713341 -3.497201 -28.159672 -0.005669 4.165274 1.480729 0.055583 -0.177992 0.038960 0.000000 0.000000 0.000000 0.000000 0.000000 0.000000 0.000000 17.667565 -14.413128 -0.838499 67.118362 -5.876794 -13.926341 3.739087 21.422368 0.010114 0.749061 4.516831 0.026199 0.106677 -0.055022 -0.000000 0.000000 0.000000 0.000000 0.000000 0.000000 0.000000 
-1.082380 17.051263 -0.862015 -9.708444 86.826516 -13.795001 -10.444580 2.710793 0.505655 -9.050709 7.427659 1.413649 -1.956833 0.298989 15.474419 1.665689 8.219891 -14.686418 -1.315600 0.000000 -22.233800 9.640212 -0.240154 -0.519045 9.276750 -11.309235 -25.478150 1.814084 -1.252001 23.462540 -1.449483 -7.273270 -2.593029 -1.079500 -0.000001 -35.497300 -0.973658 -3.097247 -1.413920 -0.935529 -3.134751 -2.419150 -6.484749 -3.061291 2.675197 10.035998 -16.910630 -8.622901 -3.115842 -0.230881 -0.255468 0.000000 0.000000 0.000000 3.517402 13.053162 0.920071 -45.120572 -5.476427 0.711590 -3.444980 -28.538916 -0.006034 4.173029 1.462199 0.054799 -0.180341 0.044330 0.000000 0.000000 0.000000 0.000000 0.000000 0.000000 0.000000 17.931234 -14.699448 -0.847728 68.075933 -6.438970 -14.575140 3.766009 20.608514 0.010048 0.652476 4.548260 0.022386 0.106791 -0.053800 -0.000000 0.000000 0.000000 0.000000 0.000000 0.000000 0.000000 
-0.933444 17.038734 -0.848857 -7.062964 87.112179 -11.077594 -10.445067 2.730925 0.448816 -9.133827 7.431794 2.435781 -1.975375 0.243960 14.633509 1.658722 8.103812 -14.759314 -1.316800 0.000000 -22.585800 9.557943 -0.172440 -0.400217 9.426209 -11.312878 -25.703717 1.972002 -0.989111 20.404067 -1.385769 -7.088781 -1.748909 -1.213900 0.000000 -36.928500 -0.995320 -3.204517 -1.437500 -0.943469 -3.243190 -2.406937 -6.514883 -3.164950 2.709441 10.141740 -17.076516 -8.658170 -3.125004 -0.231045 -0.263975 0.000000 0.000000 0.000000 3.870569 12.770945 0.985051 -43.800389 -6.043835 0.699581 -3.389371 -28.906701 -0.006385 4.170782 1.440027 0.053712 -0.182491 0.049760 0.000000 0.000000 0.000000 0.000000 0.000000 0.000000 0.000000 18.173495 -14.981293 -0.855265 69.034524 -7.011623 -15.144382 3.792741 19.824501 0.009946 0.613613 4.548343 0.020871 0.106524 -0.052320 -0.000000 0.000000 0.000000 0.000000 0.000000 0.000000 0.000000 
-0.783191 17.024082 -0.834979 -2.769082 87.401491 -6.714027 -10.462340 2.740412 0.382533 -9.240814 7.472081 3.475119 -1.993387 0.182935 13.772804 1.650102 7.982466 -14.813459 -1.314800 -0.000000 -23.010400 9.468473 -0.116494 -0.268487 9.514878 -11.293797 -25.909922 2.128119 -0.721604 17.401094 -1.302642 -6.805197 -0.951757 -1.318800 -0.000000 -38.455300 -1.062420 -3.315544 -1.465232 -0.960364 -3.352261 -2.394682 -6.534552 -3.269405 2.746890 10.238811 -17.244474 -8.693224 -3.128420 -0.230753 -0.272455 0.000000 0.000000 0.000000 4.205145 12.524224 1.048276 -42.494189 -6.587834 0.674206 -3.330523 -29.262622 -0.006731 4.161951 1.416853 0.052623 -0.184425 0.055288 0.000000 0.000000 0.000000 0.000000 0.000000 0.000000 0.000000 18.392554 -15.264950 -0.862075 69.990140 -7.591418 -15.616514 3.819885 19.075595 0.009790 0.635183 4.508569 0.021556 0.105884 -0.050493 -0.000000 0.000000 0.000000 0.000000 0.000000 0.000000 0.000000 
-0.631453 17.007504 -0.820551 3.314072 87.716133 -0.557139 -10.489423 2.732442 0.308361 -9.357686 7.536519 4.514404 -2.008908 0.114728 12.919560 1.638625 7.846412 -14.849438 -1.309200 0.000000 -23.514699 9.373740 -0.076236 -0.121419 9.550404 -11.257916 -26.111444 2.279772 -0.453602 14.480966 -1.208577 -6.451917 -0.241388 -1.389400 -0.000000 -40.010800 -1.157600 -3.441227 -1.501056 -0.982933 -3.473949 -2.383058 -6.542409 -3.386502 2.788293 10.324481 -17.415393 -8.728327 -3.126280 -0.230030 -0.280891 0.000000 0.000000 0.000000 4.514450 12.308857 1.110281 -41.203709 -7.107420 0.632837 -3.268439 -29.610628 -0.007090 4.149272 1.396537 0.051431 -0.186106 0.060974 0.000000 0.000000 0.000000 0.000000 0.000000 0.000000 0.000000 18.585781 -15.556342 -0.869275 70.939316 -8.179494 -15.977935 3.848098 18.372871 0.009557 0.720590 4.417254 0.024439 0.104872 -0.048203 -0.000000 0.000000 0.000000 0.000000 0.000000 0.000000 0.000000 
-0.478424 16.989017 -0.805939 11.306335 88.071222 7.506985 -10.503470 2.701069 0.221650 -9.465528 7.616705 5.567525 -2.019217 0.038489 12.075990 1.624784 7.697526 -14.858126 -1.298700 0.000000 -24.108100 9.288029 -0.051808 0.039835 9.543374 -11.214609 -26.302189 2.421085 -0.190095 11.663543 -1.111843 -6.056012 0.344257 -1.423500 0.000000 -41.470000 -1.247948 -3.588065 -1.536682 -1.005302 -3.616590 -2.371045 -6.539461 -3.524385 2.832033 10.398367 -17.579450 -8.761787 -3.119805 -0.228996 -0.288891 0.000000 0.000000 0.000000 4.801618 12.116864 1.171167 -39.942439 -7.608111 0.561910 -3.203935 -29.941844 -0.007462 4.133673 1.377284 0.050335 -0.187508 0.066922 0.000000 0.000000 0.000000 0.000000 0.000000 0.000000 0.000000 18.753875 -15.847794 -0.877019 71.882176 -8.789152 -16.236365 3.877960 17.732718 0.009244 0.874197 4.276202 0.029520 0.103455 -0.045446 -0.000000 0.000000 0.000000 0.000000 0.000000 0.000000 0.000000 
-0.324151 16.968754 -0.791408 20.915834 88.464281 17.187959 -10.464956 2.656423 0.123244 -9.535340 7.706954 6.620782 -2.024849 -0.040468 11.261198 1.609211 7.534595 -14.843974 -1.283100 0.000000 -24.786400 9.243372 -0.028118 0.214327 9.522170 -11.167923 -26.479080 2.543747 0.068385 8.961388 -1.020118 -5.653893 0.785431 -1.426300 -0.000000 -42.729300 -1.275157 -3.752712 -1.571435 -1.014289 -3.780506 -2.358972 -6.527860 -3.683562 2.878605 10.460641 -17.737557 -8.795749 -3.109245 -0.227645 -0.296932 0.000000 0.000000 0.000000 5.060927 11.949058 1.229714 -38.715653 -8.094765 0.458080 -3.137134 -30.258763 -0.007853 4.116115 1.361486 0.049340 -0.188570 0.073128 0.000000 0.000000 0.000000 0.000000 0.000000 0.000000 0.000000 18.896436 -16.137815 -0.884527 72.813662 -9.420370 -16.375805 3.910167 17.168328 0.008844 1.094534 4.083931 0.036201 0.101661 -0.042206 -0.000000 0.000000 0.000000 0.000000 0.000000 0.000000 0.000000 
-0.168645 16.946829 -0.776990 32.093017 88.864132 28.442381 -10.347227 2.624226 0.022997 -9.553928 7.795574 7.638710 -2.029987 -0.110979 10.504627 1.593623 7.364315 -14.824500 -1.264400 0.000001 -25.525400 9.267388 0.022606 0.395583 9.511130 -11.119085 -26.649351 2.641602 0.324939 6.402935 -0.938434 -5.281801 1.074162 -1.407800 0.000000 -43.756400 -1.200898 -3.919227 -1.611224 -0.998292 -3.952423 -2.348014 -6.509144 -3.851424 2.930128 10.513321 -17.904939 -8.835526 -3.093054 -0.225776 -0.306224 0.000000 0.000000 0.000000 5.284449 11.813866 1.283812 -37.523206 -8.567148 0.324261 -3.067837 -30.572182 -0.008268 4.096365 1.353635 0.048641 -0.189223 0.079478 0.000000 0.000000 0.000000 0.000000 0.000000 0.000000 0.000000 19.010857 -16.434439 -0.889868 73.726918 -10.055279 -16.362763 3.944914 16.682676 0.008345 1.374666 3.838236 0.043580 0.099556 -0.038489 -0.000000 0.000000 0.000000 0.000000 0.000000 0.000000 0.000000 
